<svg width="118" height="139" viewBox="0 0 118 139" fill="none" xmlns="http://www.w3.org/2000/svg">
<rect width="39" height="139" fill="#181410"/>
<path fill-rule="evenodd" clip-rule="evenodd" d="M48 129.293L48 139C86.3838 139 117.5 107.884 117.5 69.5C117.5 31.1162 86.3838 0 48 0L48 8C81.4941 8 108.646 35.1524 108.646 68.6465C108.646 102.141 81.4941 129.293 48 129.293Z" fill="#181410"/>
<path fill-rule="evenodd" clip-rule="evenodd" d="M48 96.9955V121C76.4427 121 99.5 97.9427 99.5 69.5C99.5 41.0573 76.4427 18 48 18V42.0045C62.9571 42.2711 75 54.4792 75 69.5C75 84.5208 62.9571 96.7289 48 96.9955Z" fill="#BC6F31"/>
</svg>
